<?xml version="1.0" standalone="no"?><!DOCTYPE svg PUBLIC "-//W3C//DTD SVG 1.1//EN" "http://www.w3.org/Graphics/SVG/1.1/DTD/svg11.dtd">
<svg
  t="1654319701241"
  class="icon"
  viewBox="0 0 1024 1024"
  version="1.1"
  xmlns="http://www.w3.org/2000/svg"
  p-id="1683"
  data-darkreader-inline-fill=""
  xmlns:xlink="http://www.w3.org/1999/xlink"
  width="200"
  height="200"
>
  <defs>
    <style type="text/css">
      @font-face {
        font-family: feedback-iconfont;
        src: url('//at.alicdn.com/t/font_1031158_u69w8yhxdu.woff2?t=1630033759944')
            format('woff2'),
          url('//at.alicdn.com/t/font_1031158_u69w8yhxdu.woff?t=1630033759944')
            format('woff'),
          url('//at.alicdn.com/t/font_1031158_u69w8yhxdu.ttf?t=1630033759944')
            format('truetype');
      }
    </style>
  </defs>
  <path
    d="M85.328 85.328m85.328 0l170.672 0q85.328 0 85.328 85.328l0 341.344q0 85.328-85.328 85.328l-170.672 0q-85.328 0-85.328-85.328l0-341.344q0-85.328 85.328-85.328Z"
    fill="#D9D9D9"
    p-id="1684"
    data-darkreader-inline-fill=""
    style="--darkreader-inline-fill: #c1beb8"
  ></path>
  <path
    d="M597.328 85.328m85.328 0l170.672 0q85.328 0 85.328 85.328l0 341.344q0 85.328-85.328 85.328l-170.672 0q-85.328 0-85.328-85.328l0-341.344q0-85.328 85.328-85.328Z"
    fill="#D9D9D9"
    p-id="1685"
    data-darkreader-inline-fill=""
    style="--darkreader-inline-fill: #c1beb8"
  ></path>
  <path
    d="M505.456 938.672a42.576 42.576 0 0 1-42.08-35.648l-19.248-115.632a43.584 43.584 0 0 0-31.328-34.208 339.648 339.648 0 0 1-241.088-353.392A344.16 344.16 0 0 1 502.208 85.472l9.664-0.144a341.28 341.28 0 0 1 99.296 667.856 43.632 43.632 0 0 0-31.296 34.24L560.64 903.04a42.56 42.56 0 0 1-42.08 35.648z"
    fill="#F5F5F5"
    p-id="1686"
    data-darkreader-inline-fill=""
    style="--darkreader-inline-fill: #d5d3cf"
  ></path>
  <path
    d="M384 384m-42.672 0a42.672 42.672 0 1 0 85.344 0 42.672 42.672 0 1 0-85.344 0Z"
    fill="#807A6E"
    p-id="1687"
    data-darkreader-inline-fill=""
    style="--darkreader-inline-fill: #6c757a"
  ></path>
  <path
    d="M640 384m-42.672 0a42.672 42.672 0 1 0 85.344 0 42.672 42.672 0 1 0-85.344 0Z"
    fill="#807A6E"
    p-id="1688"
    data-darkreader-inline-fill=""
    style="--darkreader-inline-fill: #6c757a"
  ></path>
  <path
    d="M661.328 362.672m-21.328 0a21.328 21.328 0 1 0 42.656 0 21.328 21.328 0 1 0-42.656 0Z"
    fill="#F5F5F5"
    p-id="1689"
    data-darkreader-inline-fill=""
    style="--darkreader-inline-fill: #d5d3cf"
  ></path>
  <path
    d="M405.328 362.672m-21.328 0a21.328 21.328 0 1 0 42.656 0 21.328 21.328 0 1 0-42.656 0Z"
    fill="#F5F5F5"
    p-id="1690"
    data-darkreader-inline-fill=""
    style="--darkreader-inline-fill: #d5d3cf"
  ></path>
  <path
    d="M853.328 74.672H682.672a95.152 95.152 0 0 0-57.968 20.16 353.648 353.648 0 0 0-122.784-20.016 343.136 343.136 0 0 0-103.552 19.344 95.104 95.104 0 0 0-57.024-19.488H256A10.672 10.672 0 1 0 256 96h85.328a72.608 72.608 0 0 1 31.424 8.08 349.52 349.52 0 0 0-173.424 482.592h-28.656A74.752 74.752 0 0 1 96 512V170.672A74.752 74.752 0 0 1 170.672 96h42.656a10.672 10.672 0 1 0 0-21.328h-42.656a96.112 96.112 0 0 0-96 96V512a96.112 96.112 0 0 0 96 96h40.928a350.656 350.656 0 0 0 130.144 126.672 10.672 10.672 0 0 0 10.336-18.672 330.592 330.592 0 0 1 150.416-619.84C505.6 96.048 508.64 96 511.68 96a332.384 332.384 0 0 1 306.96 206.656 10.656 10.656 0 1 0 19.744-8A352.064 352.064 0 0 0 650.608 104.448 72.608 72.608 0 0 1 682.672 96h170.656A74.752 74.752 0 0 1 928 170.672V512a74.752 74.752 0 0 1-74.672 74.672h-27.6a353.952 353.952 0 0 0 27.2-247.984 10.672 10.672 0 1 0-20.672 5.28 332.64 332.64 0 0 1 10.416 82.704 328.64 328.64 0 0 1-234.576 316.32 54.272 54.272 0 0 0-38.752 42.656l-19.2 115.616A32 32 0 0 1 518.544 928h-13.088a31.904 31.904 0 0 1-31.536-26.72l-19.248-115.632a54.304 54.304 0 0 0-38.752-42.672 324.448 324.448 0 0 1-27.92-9.856 10.656 10.656 0 1 0-8 19.76q14.496 5.904 29.712 10.512a33.024 33.024 0 0 1 23.872 25.76l19.296 115.648a53.2 53.2 0 0 0 52.576 44.544h13.088a53.28 53.28 0 0 0 52.624-44.56l19.248-115.632a33.04 33.04 0 0 1 23.84-25.76A349.504 349.504 0 0 0 813.024 608h40.32a96.112 96.112 0 0 0 96-96V170.672a96.112 96.112 0 0 0-96-96z"
    fill="#231F20"
    p-id="1691"
    data-darkreader-inline-fill=""
    style="--darkreader-inline-fill: #2f3335"
  ></path>
  <path
    d="M437.328 384A53.328 53.328 0 1 0 384 437.328 53.376 53.376 0 0 0 437.328 384zM352 384a32 32 0 1 1 32 32 32.048 32.048 0 0 1-32-32zM693.328 384A53.328 53.328 0 1 0 640 437.328 53.376 53.376 0 0 0 693.328 384zM608 384a32 32 0 1 1 32 32 32.048 32.048 0 0 1-32-32z"
    fill="#231F20"
    p-id="1692"
    data-darkreader-inline-fill=""
    style="--darkreader-inline-fill: #2f3335"
  ></path>
</svg>
